<?xml version="1.0" standalone="no"?>
<!DOCTYPE svg PUBLIC "-//W3C//DTD SVG 20010904//EN"
 "http://www.w3.org/TR/2001/REC-SVG-20010904/DTD/svg10.dtd">
<svg version="1.0" xmlns="http://www.w3.org/2000/svg"
 width="1024.000000pt" height="1024.000000pt" viewBox="0 0 1024.000000 1024.000000"
 preserveAspectRatio="xMidYMid meet">
<metadata>
Created by potrace 1.14, written by Peter Selinger 2001-2017
</metadata>
<g transform="translate(0.000000,1024.000000) scale(0.100000,-0.100000)"
fill="#000000" stroke="none">
<path d="M4776 9583 c-109 -23 -239 -83 -275 -127 -12 -14 -10 -16 12 -16 22
0 16 -8 -50 -72 -85 -82 -129 -144 -164 -233 -21 -55 -23 -74 -23 -220 1 -122
7 -200 27 -328 32 -200 32 -190 7 -182 -106 34 -104 -241 4 -454 31 -60 50
-76 93 -76 l35 0 36 -110 c21 -60 57 -144 82 -185 l44 -75 6 -180 c5 -159 8
-185 27 -220 49 -92 286 -287 385 -317 53 -16 94 -1 208 74 112 73 227 186
261 254 22 45 24 63 27 223 l4 174 45 77 c24 43 59 124 78 181 l33 104 35 -3
c29 -3 39 2 64 33 81 97 138 360 102 464 -11 31 -46 50 -68 36 -16 -9 -14 31
10 190 26 170 30 395 10 475 -29 117 -87 186 -147 177 -31 -5 -32 -4 -38 36
-17 104 -258 250 -491 298 -109 23 -280 24 -379 2z"/>
<path d="M4443 7185 c-17 -14 -62 -65 -99 -113 -161 -209 -158 -207 -698 -362
-436 -124 -471 -139 -514 -217 -12 -22 -56 -161 -98 -309 -92 -326 -281 -964
-335 -1129 -21 -67 -50 -186 -64 -269 -22 -137 -28 -156 -75 -242 -42 -79 -50
-103 -50 -147 0 -48 -3 -56 -37 -89 -21 -19 -63 -54 -94 -76 -69 -50 -68 -47
-373 -700 -125 -266 -240 -510 -256 -542 l-30 -59 -526 -3 -526 -3 -24 -28
c-21 -25 -24 -38 -24 -111 0 -50 5 -89 12 -99 12 -16 286 -17 4438 -15 l4425
3 3 100 c3 98 2 102 -23 125 l-27 25 -521 5 -522 5 -325 651 c-179 359 -331
658 -338 667 -7 8 -30 17 -50 21 -47 7 -102 43 -113 73 -7 19 -2 30 26 58 58
58 48 101 -63 249 -59 79 -60 79 -71 177 -8 75 -40 196 -135 511 -68 227 -154
517 -191 643 -114 395 -123 423 -143 467 -52 118 -115 148 -582 278 -434 122
-493 152 -644 334 -79 96 -129 146 -145 146 -3 0 -6 -80 -6 -177 0 -98 -6
-221 -14 -273 -39 -286 -105 -711 -140 -899 -47 -251 -141 -642 -153 -635 -4
3 -8 24 -8 48 0 71 -39 472 -60 621 -11 77 -33 192 -50 255 -16 63 -30 123
-30 132 0 9 23 53 52 97 l51 80 29 -25 c16 -13 33 -24 36 -24 17 0 82 63 82
78 0 15 -22 43 -154 195 -18 20 -40 37 -49 37 -9 0 -32 -13 -50 -30 -32 -27
-41 -30 -106 -30 -63 0 -76 3 -113 30 -22 17 -47 30 -54 30 -25 0 -184 -201
-184 -233 0 -14 63 -77 78 -77 4 0 20 11 36 24 l30 23 49 -81 c56 -92 56 -58
4 -281 -15 -60 -35 -175 -46 -255 -19 -137 -28 -221 -51 -489 -5 -63 -12 -116
-14 -118 -6 -6 -83 318 -127 537 -42 209 -111 662 -154 1010 -22 171 -26 237
-20 323 7 120 3 125 -52 82z m-842 -2698 c26 -96 80 -461 90 -610 16 -235 -1
-427 -77 -849 l-17 -98 -439 0 c-242 0 -438 4 -436 8 20 50 291 572 319 617
21 33 65 87 99 120 34 32 65 66 70 75 4 8 40 107 80 220 108 305 198 508 253
568 20 22 22 22 34 5 8 -9 18 -35 24 -56z m2989 51 c38 -41 104 -199 207 -493
19 -55 55 -148 80 -207 l45 -108 109 -87 c98 -78 109 -90 109 -119 0 -77 44
-181 195 -459 35 -66 65 -123 65 -128 0 -4 -197 -6 -437 -5 l-438 3 -12 55
c-58 245 -100 635 -88 810 22 335 96 760 131 760 7 0 23 -10 34 -22z"/>
<path d="M637 2432 c-13 -15 -17 -39 -17 -111 0 -89 1 -94 29 -122 29 -28 32
-29 135 -29 l106 0 0 -819 c0 -451 4 -822 9 -825 4 -3 1879 -6 4166 -6 3434
-1 4160 1 4167 12 6 8 8 334 5 826 l-5 812 99 0 c104 0 150 13 163 45 11 31 7
210 -6 223 -9 9 -1006 12 -4423 12 -4261 0 -4412 -1 -4428 -18z"/>
</g>
</svg>
